Coordinates
version=1
nRows=11
nColumns=40
inDegrees=yes

Units are S.I. units (second, meters, Newtons, ...)
Angles are in degrees.

endheader
time	pelvis_tilt	pelvis_list	pelvis_rotation	pelvis_tx	pelvis_ty	pelvis_tz	hip_flexion_r	hip_adduction_r	hip_rotation_r	knee_angle_r	knee_angle_r_beta	ankle_angle_r	subtalar_angle_r	mtp_angle_r	hip_flexion_l	hip_adduction_l	hip_rotation_l	knee_angle_l	knee_angle_l_beta	ankle_angle_l	subtalar_angle_l	mtp_angle_l	lumbar_extension	lumbar_bending	lumbar_rotation	arm_flex_r	arm_add_r	arm_rot_r	elbow_flex_r	pro_sup_r	wrist_flex_r	wrist_dev_r	arm_flex_l	arm_add_l	arm_rot_l	elbow_flex_l	pro_sup_l	wrist_flex_l	wrist_dev_l
     18.78342857	     -3.44454669	     -2.05028408	      0.93450366	      1.04021992	      0.91333767	      0.40018918	     15.50302251	     -9.50195122	     -4.22265947	     57.71132788	     57.71132788	      3.22610750	    -13.16784910	    -12.40810635	     19.43638706	      1.74420212	     -0.36056356	     32.88865406	     32.88865406	     19.88034820	    -17.68423555	      9.52244289	     -8.89843808	      6.11339168	      3.29070696	     10.32952563	    -12.98666387	    -12.86700636	     26.92986429	     46.83515270	      0.00000000	      0.00000000	     24.33890715	    -15.04234781	     11.89259249	     47.00322273	     45.70756277	      0.00000000	      0.00000000
     18.80685714	     -3.22921214	     -2.02361509	      0.54290790	      1.03840957	      0.91403239	      0.39946852	     17.84015401	     -9.43644751	     -3.00980834	     60.87385415	     60.87385415	      3.20798149	    -13.31781874	     -7.38111943	     18.70396832	      1.68472619	     -0.86039148	     32.40269071	     32.40269071	     19.83680533	    -17.48959093	      8.83773001	     -9.20005683	      6.17175474	      2.93089895	      6.75561531	    -12.74578183	    -13.29656301	     25.43484741	     46.88962318	      0.00000000	      0.00000000	     26.36752919	    -15.37710669	      9.81436795	     48.75413963	     45.97874420	      0.00000000	      0.00000000
     18.83028571	     -3.06594792	     -2.03644331	      0.13975701	      1.03651666	      0.91515077	      0.39918820	     19.99684578	     -9.27047896	     -2.05274868	     63.08476621	     63.08476621	      3.37051559	    -13.56376441	     -3.38670295	     17.92827961	      1.56413702	     -1.36210886	     31.71572546	     31.71572546	     19.67609055	    -17.26588343	      8.13223591	     -9.46277936	      6.24866872	      2.55220838	      3.21296950	    -12.53719988	    -13.24010807	     24.49523878	     46.88423606	      0.00000000	      0.00000000	     28.29556928	    -15.85991463	      8.08745831	     50.61593502	     46.20810690	      0.00000000	      0.00000000
     18.85371429	     -2.92950182	     -2.07092854	     -0.34805962	      1.03466054	      0.91679312	      0.39940369	     21.83275961	     -9.01966596	     -1.29208064	     64.07886624	     64.07886624	      2.99484495	    -14.37217297	     -2.67787502	     17.05628089	      1.38730652	     -1.93401035	     30.81706085	     30.81706085	     19.64344518	    -16.93946189	      8.07543942	     -9.67033264	      6.33062529	      2.40222971	     -0.13156400	    -12.42466331	    -13.20005695	     23.28868971	     46.90116783	      0.00000000	      0.00000000	     30.24881203	    -16.43569751	      7.24146598	     52.12276673	     46.32230375	      0.00000000	      0.00000000
     18.87714286	     -2.83085093	     -2.17189153	     -0.88301537	      1.03274629	      0.91879630	      0.40011306	     23.45506999	     -8.68106834	     -0.79270225	     64.09781812	     64.09781812	      3.23496256	    -14.92668985	     -1.97128385	     16.11731338	      1.10460445	     -2.56214389	     29.71983076	     29.71983076	     19.46677902	    -16.51947606	      7.79997080	     -9.88919065	      6.45679471	      2.32874441	     -3.35490241	    -12.26662325	    -13.15274826	     22.61005301	     46.89394365	      0.00000000	      0.00000000	     32.01827218	    -16.94531268	      6.01975153	     53.94407465	     46.46913847	      0.00000000	      0.00000000
     18.90057143	     -2.80885347	     -2.27899787	     -1.50485349	      1.03079618	      0.92102965	      0.40134280	     24.87062212	     -8.32532917	     -0.49659326	     63.05377989	     63.05377989	      3.81604461	    -15.23452352	     -1.78125793	     15.15340667	      0.78812077	     -3.27784415	     28.42015707	     28.42015707	     19.14763857	    -16.07268058	      7.45145450	    -10.04666600	      6.55646401	      2.21316496	     -6.30018639	    -12.09868668	    -13.10304415	     22.36290226	     46.86875978	      0.00000000	      0.00000000	     33.54070732	    -17.50167314	      4.59441013	     55.81601808	     46.62871373	      0.00000000	      0.00000000
     18.92400000	     -2.83824330	     -2.42535423	     -2.21913538	      1.02885890	      0.92335383	      0.40309444	     25.99253388	     -7.91545195	     -0.41660096	     60.92841062	     60.92841062	      4.59220161	    -15.29810260	     -2.27527452	     14.15530224	      0.40207716	     -4.10251883	     26.98013936	     26.98013936	     18.77630568	    -15.57347892	      7.05086118	    -10.15787293	      6.70509748	      2.20275283	     -8.98094474	    -11.94114923	    -13.03924251	     22.41842074	     46.83048726	      0.00000000	      0.00000000	     34.89512268	    -18.06483627	      3.04847889	     57.79478912	     46.79520730	      0.00000000	      0.00000000
     18.94742857	     -3.03788875	     -2.65521927	     -2.97013287	      1.02688535	      0.92540026	      0.40528890	     26.81136957	     -7.43398603	     -0.65003381	     57.54744929	     57.54744929	      4.64077973	    -15.42247283	     -5.61264481	     13.32035477	     -0.09395898	     -4.94820696	     25.46840269	     25.46840269	     17.75532293	    -15.34395049	      5.19923695	    -10.13403524	      6.91175113	      1.74176843	    -11.71198518	    -11.94380932	    -12.43479433	     24.59947527	     46.64381711	      0.00000000	      0.00000000	     35.24881199	    -18.59562856	     -0.40905751	     61.00879641	     47.12503452	      0.00000000	      0.00000000
     18.97085714	     -3.22118801	     -2.81570467	     -3.82450473	      1.02494231	      0.92737651	      0.40798512	     27.21105514	     -6.95854785	     -0.96230096	     53.16911607	     53.16911607	      4.63876398	    -15.04681100	     -9.13926020	     12.44031460	     -0.51698695	     -5.84812823	     23.96918749	     23.96918749	     17.15188683	    -14.98430320	      4.36147663	    -10.10325261	      7.00480753	      1.75388259	    -13.72366013	    -11.99515514	    -11.07531456	     25.22733586	     46.48284639	      0.00000000	      0.00000000	     36.21400103	    -19.22201342	     -1.89769979	     63.04626871	     47.28280191	      0.00000000	      0.00000000
     18.99428571	     -3.40312575	     -2.94066562	     -4.71382079	      1.02311105	      0.92908746	      0.41112262	     27.29159702	     -6.44911453	     -1.38894397	     48.23815367	     48.23815367	      5.59530485	    -13.26227785	     -9.59015480	     11.61075143	     -0.91323305	     -6.79290363	     22.63883703	     22.63883703	     16.95066345	    -14.48047983	      4.40462228	    -10.04606407	      7.02379128	      2.06878574	    -15.13515562	    -11.81753291	    -10.89628960	     25.12226544	     46.45927929	      0.00000000	      0.00000000	     37.45748859	    -19.78473518	     -2.56384854	     64.40936248	     47.36177831	      0.00000000	      0.00000000
     19.01771429	     -3.64524816	     -3.07082652	     -5.58618279	      1.02145043	      0.93030480	      0.41460087	     26.96357601	     -5.89431101	     -2.02481003	     42.57340522	     42.57340522	      5.99325362	    -10.83844413	    -10.67084376	     10.86947099	     -1.33447304	     -7.74647640	     21.36056216	     21.36056216	     16.38973820	    -14.13127734	      3.34457114	     -9.93571341	      7.07158005	      2.00618764	    -16.45528475	    -11.79001302	    -10.40974098	     26.51426331	     46.34629215	      0.00000000	      0.00000000	     37.80690162	    -20.39537413	     -4.44316545	     66.98191722	     47.54327511	      0.00000000	      0.00000000
